<svg width="40" height="20" viewBox="0 0 40 20" fill="none" xmlns="http://www.w3.org/2000/svg">
<g clip-path="url(#clip0_70_621)">
<path d="M16.2786 16.1451H11.1704V3.98895H16.4623C18.944 3.98895 19.8072 6.00985 18.552 7.87474L17.9577 8.75639C22.1196 10.9179 20.7669 16.1462 16.2765 16.1462M15.67 9.33628L16.684 7.8224C16.8822 7.57072 16.9905 7.26005 16.9919 6.93973C16.9805 6.57404 16.8275 6.22708 16.5651 5.97203C16.3028 5.71698 15.9517 5.57378 15.5858 5.57262H14.0329V14.5122H14.8951C15.2427 14.5446 15.5931 14.4989 15.9207 14.3784C16.2484 14.2579 16.5449 14.0656 16.7886 13.8157C17.0324 13.5658 17.2171 13.2645 17.3294 12.934C17.4416 12.6034 17.4785 12.2519 17.4374 11.9053C17.512 11.335 17.373 10.7574 17.047 10.2836C16.7211 9.80979 16.2313 9.47344 15.672 9.33936" fill="#004290"/>
<path d="M5.99676 16.1451H0.890625V3.98895H6.18355C8.66426 3.98895 9.52948 6.00985 8.27219 7.87474L7.67896 8.75639C11.8398 10.9179 10.4871 16.1451 5.99676 16.1451ZM5.39018 9.33628L6.40422 7.8224C6.60237 7.57072 6.71075 7.26005 6.71213 6.93973C6.70123 6.57448 6.54898 6.22771 6.28745 5.9725C6.02592 5.71729 5.67554 5.57356 5.31012 5.5716H3.75109V14.5112H4.61425C4.96176 14.5434 5.31208 14.4976 5.63959 14.377C5.96709 14.2564 6.2635 14.0642 6.50711 13.8143C6.75072 13.5643 6.93538 13.2631 7.04757 12.9327C7.15976 12.6022 7.19664 12.2508 7.15552 11.9042C7.23019 11.334 7.09115 10.7563 6.76518 10.2826C6.43922 9.80877 5.94942 9.47242 5.39018 9.33833" fill="#004290"/>
<path d="M28.3595 3.98895H30.2778L26.5685 16.14H23.6557L19.6816 3.98895H21.8288C22.6581 3.98895 22.8757 4.20346 23.3098 5.57981L25.6109 13.2221L28.3595 3.98895Z" fill="#004290"/>
<path d="M36.37 5.22679C36.0272 4.21275 35.7962 3.98798 34.8982 3.98798H32.5755L28.855 16.1411H30.7507L31.5481 13.5167H35.9697L36.7713 16.1401H40.0556L36.37 5.22679ZM32.0808 11.737L33.7394 6.19465L35.4226 11.737H32.0808Z" fill="#004290"/>
</g>
<defs>
<clipPath id="clip0_70_621">
<rect width="39.0016" height="18.4744" fill="white" transform="translate(0.890625 0.908875)"/>
</clipPath>
</defs>
</svg>
