<svg width="68" height="30" viewBox="0 0 68 30" fill="none" xmlns="http://www.w3.org/2000/svg">
<rect x="0.313965" y="0.7771" width="66.7133" height="28.738" rx="4.10543" fill="#FF0000"/>
<g clip-path="url(#clip0_2_3075)">
<path d="M63.061 14.6721C63.0794 14.991 63.0501 15.3108 62.9741 15.6211C62.6935 15.5446 62.4022 15.5152 62.1121 15.5341C61.8531 15.5341 61.5951 15.6211 61.3361 15.6211V19.9329H60.2152V14.9331C60.8265 14.7192 61.4676 14.6028 62.1151 14.5881C62.4339 14.5699 62.7537 14.5989 63.064 14.6741M55.5644 16.83H58.1512C58.1618 16.6573 58.1355 16.4844 58.0742 16.3227C58.0129 16.1609 57.9179 16.014 57.7956 15.8917C57.6733 15.7694 57.5264 15.6744 57.3646 15.6131C57.2029 15.5518 57.03 15.5255 56.8573 15.5361C56.0813 15.5361 55.6504 15.9674 55.5644 16.83ZM59.1862 17.779H55.6443C55.7303 18.7279 56.2443 19.1589 57.2833 19.1589C57.9108 19.1378 58.5275 18.9898 59.0962 18.7239C58.9964 19.0605 58.9383 19.4081 58.9232 19.7589C58.4103 19.996 57.8503 20.1139 57.2853 20.1039C56.9072 20.1542 56.5225 20.1182 56.1603 19.9985C55.7981 19.8789 55.4677 19.6789 55.1938 19.4133C54.92 19.1477 54.7098 18.8236 54.5792 18.4652C54.4485 18.1068 54.4007 17.7235 54.4394 17.344C54.4394 15.791 55.2154 14.5841 56.9393 14.5841C57.2528 14.5531 57.5693 14.592 57.8659 14.6982C58.1626 14.8044 58.4319 14.9751 58.6545 15.198C58.8772 15.4209 59.0475 15.6905 59.1533 15.9872C59.2591 16.284 59.2976 16.6005 59.2662 16.914C59.2662 17.259 59.1802 17.514 59.1802 17.777M52.4535 18.8119V15.6241C52.1945 15.6241 51.8535 15.5371 51.5915 15.5371C50.4706 15.5371 49.9526 16.227 49.9526 17.437C49.9526 18.4719 50.3836 19.1619 51.3325 19.1619C51.7286 19.1393 52.1132 19.0209 52.4535 18.8169M53.5744 12.8662V19.9379H52.5395L52.4535 19.3379C52.306 19.5913 52.0905 19.7984 51.8314 19.9357C51.5724 20.073 51.2801 20.1351 50.9875 20.1149C49.6936 20.1149 48.8316 19.0799 48.8316 17.441C48.7797 17.0617 48.8147 16.6756 48.9339 16.3118C49.0531 15.948 49.2534 15.6161 49.5197 15.3411C49.7861 15.0661 50.1114 14.8552 50.4712 14.7244C50.831 14.5936 51.2158 14.5463 51.5965 14.5861C51.9415 14.5861 52.1965 14.6721 52.4585 14.6721V13.0332C52.8145 12.8925 53.1976 12.8337 53.5794 12.8612M47.8877 16.569V19.9329H46.7617V16.742C46.7617 15.966 46.5037 15.5341 45.3818 15.5341C45.1238 15.5341 44.8648 15.6211 44.5198 15.6211V19.9329H43.3968V14.9331C44.0718 14.7411 44.7661 14.6254 45.4668 14.5881C47.2777 14.5881 47.8807 15.3641 47.8807 16.571M41.0679 18.8139V15.6241C40.81 15.6241 40.551 15.5371 40.292 15.5371C39.085 15.5371 38.567 16.314 38.567 17.437C38.567 18.4719 38.999 19.1619 39.947 19.1619C40.351 19.1944 40.7521 19.0709 41.0679 18.8169M42.1899 14.9361V19.9359H41.1569L41.0699 19.3359C40.9335 19.5794 40.7326 19.7807 40.4894 19.9177C40.2462 20.0548 39.97 20.1223 39.691 20.1129C38.3111 20.1129 37.4481 19.0779 37.4481 17.439C37.399 17.053 37.4388 16.6609 37.5646 16.2927C37.6903 15.9245 37.8986 15.5899 38.1736 15.3146C38.4485 15.0392 38.7828 14.8304 39.1508 14.7042C39.5189 14.5779 39.9109 14.5375 40.297 14.5861C40.9475 14.5666 41.5948 14.6841 42.1969 14.9311M36.1601 19.1569C36.4833 19.1495 36.8032 19.0911 37.1081 18.9839C37.0221 19.2429 37.0221 19.5839 36.9361 19.9329C36.6307 20.0395 36.3105 20.0979 35.9872 20.1059C35.7537 20.1347 35.5168 20.1099 35.2944 20.0335C35.072 19.957 34.8699 19.8308 34.7036 19.6645C34.5373 19.4981 34.4111 19.2961 34.3346 19.0737C34.2582 18.8513 34.2334 18.6144 34.2622 18.3809V13.0332C34.599 12.9342 34.9465 12.8764 35.2972 12.8612V14.7611H37.1081C37.1081 15.1061 37.0221 15.4511 37.0221 15.7101H35.2922V18.2099C35.2922 18.8999 35.6372 19.1589 36.1551 19.1589M33.1363 16.571V19.9349H32.0153V16.742C32.0153 15.966 31.7573 15.5341 30.6354 15.5341C30.3774 15.5341 30.0354 15.6211 29.6874 15.6211V19.9329H28.5665V14.9331C29.244 14.7545 29.9366 14.639 30.6354 14.5881C32.5353 14.5881 33.1363 15.3641 33.1363 16.571ZM26.2355 18.8139V15.6241C26.0636 15.6241 25.8046 15.5371 25.4596 15.5371C25.2155 15.5286 24.9724 15.5734 24.7474 15.6684C24.5224 15.7633 24.3208 15.9062 24.1566 16.0871C23.9924 16.2679 23.8696 16.4824 23.7967 16.7155C23.7239 16.9486 23.7027 17.1948 23.7346 17.437C23.7346 18.4719 24.1656 19.1619 25.2006 19.1619C25.3875 19.1781 25.5758 19.1558 25.7537 19.0965C25.9317 19.0371 26.0957 18.942 26.2355 18.8169M27.3565 14.9361V19.9359H26.3235V19.3359C26.1602 19.5742 25.9415 19.7694 25.6862 19.9047C25.4308 20.04 25.1465 20.1115 24.8576 20.1129C23.5647 20.1129 22.6157 19.0779 22.6157 17.439C22.5679 17.0538 22.6085 16.6628 22.7346 16.2957C22.8607 15.9287 23.0689 15.5952 23.3434 15.3208C23.6178 15.0463 23.9513 14.8381 24.3183 14.712C24.6854 14.5859 25.0764 14.5453 25.4616 14.5931C26.1132 14.5569 26.7642 14.6751 27.3615 14.9381M17.2719 19.7679C17.2798 19.4164 17.338 19.0679 17.4449 18.7329C18.0492 18.9722 18.695 19.0894 19.3448 19.0779C20.2938 19.0779 20.8108 18.8189 20.8108 18.2149C20.8108 17.611 20.3798 17.353 19.4308 16.921L18.9138 16.749C18.463 16.6234 18.0664 16.3523 17.7855 15.978C17.5047 15.6037 17.3554 15.147 17.3609 14.6791C17.3609 13.5581 18.1379 12.7792 19.7758 12.7792C20.3894 12.7682 21.0008 12.8556 21.5867 13.0382C21.5862 13.3902 21.5281 13.7398 21.4147 14.0731C20.8834 13.9098 20.3316 13.8226 19.7758 13.8141C18.9138 13.8141 18.4829 14.1591 18.4829 14.6771C18.4829 15.1951 18.8268 15.5391 19.6038 15.798L20.1208 16.057C21.4147 16.574 21.9317 17.178 21.9317 18.127C21.9317 19.3339 21.0698 20.1109 19.3448 20.1109C18.6377 20.1525 17.9303 20.0346 17.2749 19.7659M12.1871 14.7661C12.1246 14.3783 12.0085 14.001 11.8421 13.6451L10.1112 10.7043C10.0109 10.4799 9.92475 10.2494 9.85321 10.0143V10.1873C9.64116 10.5385 9.52908 10.941 9.52908 11.3512C9.52908 11.7615 9.64116 12.164 9.85321 12.5152L11.1462 14.8441C11.3577 15.1957 11.4694 15.5982 11.4694 16.0085C11.4694 16.4188 11.3577 16.8214 11.1462 17.173L11.0602 17.346C11.0538 17.0669 10.9636 16.7961 10.8012 16.569L9.59822 14.4131L8.81825 13.1242C8.65576 12.8975 8.56549 12.627 8.55927 12.3482L8.47327 12.5202C8.26113 12.8715 8.149 13.2742 8.149 13.6846C8.149 14.0951 8.26113 14.4977 8.47327 14.8491L9.85321 17.178C10.0233 17.5426 10.1114 17.9401 10.1114 18.3424C10.1114 18.7448 10.0233 19.1423 9.85321 19.5069L9.76622 19.6789C9.69433 19.4439 9.60818 19.2134 9.50823 18.9889L7.7833 16.052C7.54952 15.6615 7.43 15.2132 7.43831 14.7581C5.62738 15.1891 4.41943 16.224 4.41943 17.346C4.41943 18.9839 6.83433 20.2779 9.85321 20.2779C12.7851 20.2779 15.199 18.9839 15.199 17.346C15.199 16.224 13.992 15.1891 12.1811 14.7581" fill="white"/>
</g>
<defs>
<clipPath id="clip0_2_3075">
<rect width="58.5024" height="18.4744" fill="white" transform="translate(4.41943 5.90887)"/>
</clipPath>
</defs>
</svg>
